<?xml version="1.0" encoding="UTF-8" standalone="no"?>
<!-- Created with Inkscape (http://www.inkscape.org/) -->

<svg
   sodipodi:docname="death.svg"
   inkscape:version="1.2.1 (2ed6d7ae0b, 2022-08-22, custom)"
   id="svg10609"
   version="1.1"
   viewBox="0 0 100 100"
   height="100mm"
   width="100mm"
   xmlns:inkscape="http://www.inkscape.org/namespaces/inkscape"
   xmlns:sodipodi="http://sodipodi.sourceforge.net/DTD/sodipodi-0.dtd"
   xmlns="http://www.w3.org/2000/svg"
   xmlns:svg="http://www.w3.org/2000/svg">
  <sodipodi:namedview
     id="namedview10611"
     pagecolor="#ffffff"
     bordercolor="#000000"
     borderopacity="0.25"
     inkscape:showpageshadow="2"
     inkscape:pageopacity="0.0"
     inkscape:pagecheckerboard="0"
     inkscape:deskcolor="#d1d1d1"
     inkscape:document-units="mm"
     showgrid="false"
     inkscape:zoom="1.4848797"
     inkscape:cx="190.58783"
     inkscape:cy="190.25111"
     inkscape:window-width="1846"
     inkscape:window-height="1016"
     inkscape:window-x="74"
     inkscape:window-y="27"
     inkscape:window-maximized="1"
     inkscape:current-layer="layer1" />
  <defs
     id="defs10606" />
  <g
     inkscape:label="Layer 1"
     inkscape:groupmode="layer"
     id="layer1">
    <path
       style="fill:#232323;fill-opacity:1;stroke:none;stroke-width:1.13682;stroke-opacity:1"
       d="m 46.510937,40.174433 7.31352,17.819284 -2.14994,4.866594 -9.11839,1.809139 -4.06103,-4.475461 1.04754,-20.184454 6.96829,0.164908"
       id="leftArm1"
       sodipodi:nodetypes="ccccccc"
       inkscape:transform-center-x="-3.4050961"
       inkscape:transform-center-y="10.908548">
      <desc
         id="desc469">{
    &quot;connectTo&quot;: &quot;body&quot;
}</desc>
    </path>
    <path
       style="fill:#232323;fill-opacity:1;stroke:none;stroke-width:1.13682;stroke-opacity:1"
       d="m 61.839807,75.252905 -23.60741,0.552511 0.2374,-15.476669 3.5127,-6.465871 6.85241,-0.466136 4.83026,4.037767 z"
       id="leftArm2"
       sodipodi:nodetypes="ccccccc"
       inkscape:transform-center-x="-3.8245759"
       inkscape:transform-center-y="6.4811202">
      <desc
         id="desc471">{
    &quot;connectTo&quot;: &quot;leftArm1&quot;
}</desc>
    </path>
    <path
       style="fill:#663800;fill-opacity:1;stroke:none;stroke-width:1.13682;stroke-opacity:1"
       d="m 31.013715,55.664101 68.969402,51.915989 -2.57169,3.90869 -69.032348,-53.925391 2.634681,-1.899272"
       id="snath"
       inkscape:transform-center-x="-6.1979181"
       inkscape:transform-center-y="5.2455961">
      <desc
         id="desc18757">{
    &quot;connectTo&quot;: &quot;leftArm2&quot;
}</desc>
    </path>
    <path
       style="fill:#333333;stroke:none;stroke-width:1.13682;stroke-opacity:1"
       d="M 58.08717,99.722872 54.011356,87.238491 47.510507,35.611518 53.044608,27.154613 54.029832,21.212329 52.001378,14.638436 47.539724,9.6186462 34.368779,9.4549434 21.114866,17.299789 l -4.645011,20.008044 7.134828,-5.969809 5.150937,-1.05007 -4.983269,38.122993 -3.312726,13.873922 -3.855395,9.354693 -5.808228,4.84019 -8.0382166,3.225933 55.3293846,0.01719"
       id="body"
       sodipodi:nodetypes="cccccccccccccccccc"
       inkscape:transform-center-x="3.135596"
       inkscape:transform-center-y="-45.333302" />
    <path
       style="fill:#6e6e6e;fill-opacity:1;stroke:none;stroke-width:1.13682;stroke-opacity:1"
       d="m 92.741707,105.86643 -8.73252,11.59134 -18.94481,11.04922 14.8289,-1.56823 11.74819,-7.8008 6.10279,-9.64937 -5.00254,-3.62216"
       id="blade"
       sodipodi:nodetypes="ccccccc"
       inkscape:transform-center-x="13.479786"
       inkscape:transform-center-y="9.4291174">
      <desc
         id="desc18759">{
    &quot;connectTo&quot;: &quot;snath&quot;
}</desc>
    </path>
    <path
       style="fill:#3c3c3c;fill-opacity:1;stroke:none;stroke-width:1.13682;stroke-opacity:1"
       d="m 18.192916,54.537559 -8.7205527,20.446798 8.8124537,-0.385841 7.361901,0.508725 7.888242,1.951544 -0.353733,-20.280996 -9.252288,-6.185544"
       id="rightArm2"
       sodipodi:nodetypes="ccccccc"
       inkscape:label="rightArm2"
       inkscape:transform-center-x="0.26878229"
       inkscape:transform-center-y="7.5717932">
      <desc
         id="desc18761-5">{
    &quot;connectTo&quot;: &quot;rightArm1&quot;
}</desc>
    </path>
    <path
       style="fill:#000000;fill-opacity:1;stroke:none;stroke-width:1.13682;stroke-opacity:1"
       d="m 41.038874,14.312749 -4.607568,3.448033 -2.940335,6.527098 2.648463,4.388181 4.201662,2.895735 7.525174,-0.39916 2.830641,-3.583201 1.582461,-5.559451 -2.72881,-5.832719 -3.61693,-2.893372 -4.894758,1.008856"
       id="face"
       sodipodi:nodetypes="ccccccccccc">
      <desc
         id="desc230">{
    &quot;connectTo&quot;: &quot;body&quot;
}</desc>
    </path>
    <circle
       id="path732"
       style="fill:#000000;stroke:#000000;stroke-width:0.264583"
       cx="61.079842"
       cy="-6.0256853"
       r="0.0057782494"
       transform="rotate(67.911591)" />
    <path
       style="fill:#3c3c3c;fill-opacity:1;stroke:none;stroke-width:1.13682;stroke-opacity:1"
       d="m 24.802261,39.067753 -6.556659,15.373186 2.965056,6.1284 8.758775,1.169313 3.26448,-5.057484 -0.223738,-12.827793 -1.237869,-4.855658 -1.953262,-1.084048 -2.829782,-0.03051 -2.187001,1.18459"
       id="rightArm1"
       sodipodi:nodetypes="cccccccccc"
       inkscape:label="rightArm1"
       inkscape:transform-center-x="2.2593811"
       inkscape:transform-center-y="7.5522974">
      <desc
         id="desc18761">{
    &quot;connectTo&quot;: &quot;body&quot;
}</desc>
    </path>
  </g>
</svg>
