<?xml version="1.0" encoding="UTF-8" standalone="no"?>
<!-- Created with Inkscape (http://www.inkscape.org/) -->

<svg
   sodipodi:docname="dog.svg"
   inkscape:version="1.2.1 (2ed6d7ae0b, 2022-08-22, custom)"
   id="svg10609"
   version="1.1"
   viewBox="0 0 100 100"
   height="100mm"
   width="100mm"
   xml:space="preserve"
   xmlns:inkscape="http://www.inkscape.org/namespaces/inkscape"
   xmlns:sodipodi="http://sodipodi.sourceforge.net/DTD/sodipodi-0.dtd"
   xmlns="http://www.w3.org/2000/svg"
   xmlns:svg="http://www.w3.org/2000/svg"><sodipodi:namedview
     id="namedview10611"
     pagecolor="#ffffff"
     bordercolor="#000000"
     borderopacity="0.25"
     inkscape:showpageshadow="2"
     inkscape:pageopacity="0.0"
     inkscape:pagecheckerboard="0"
     inkscape:deskcolor="#d1d1d1"
     inkscape:document-units="mm"
     showgrid="false"
     inkscape:zoom="0.84586124"
     inkscape:cx="-37.831264"
     inkscape:cy="219.30311"
     inkscape:window-width="1846"
     inkscape:window-height="1016"
     inkscape:window-x="74"
     inkscape:window-y="27"
     inkscape:window-maximized="1"
     inkscape:current-layer="layer1" /><defs
     id="defs10606" /><g
     inkscape:label="Layer 1"
     inkscape:groupmode="layer"
     id="layer1"><path
       style="fill:#c87137;fill-opacity:1;stroke-width:0.659236"
       d="m 20.689916,30.675116 -4.190134,10.446307 7.336047,10.314252 -5.356127,8.933451 4.146217,11.368997 -3.340763,7.355064 1.53132,7.622866 4.187533,0.19557 0.4639,-2.838328 -2.96362,-0.50818 -0.31912,-3.577546 8.68183,-5.834663 1.61843,-8.675938 7.98459,-1.359707 7.64058,4.983707 8.585361,-1.72389 -0.04386,9.226713 4.335948,9.765248 3.575289,0.393845 0.557397,-3.384553 -2.830633,-0.239954 -0.806045,-6.019573 2.262518,-10.303934 1.076595,-9.0334 3.589274,-8.979373 9.88752,0.386401 0.0729,-1.603589 -3.70002,-1.400483 3.99552,0.466184 1.33471,-2.311913 -7.59616,-3.315785 -0.16915,-2.884625 -6.26408,-1.366419 -2.33809,-4.633419 -2.40293,8.022413 -5.53882,9.411658 -27.14829,-0.910886 -8.786913,-7.846187 0.93137,-10.140337"
       id="path12572"
       sodipodi:nodetypes="ccccccsccccccccsccccccccccccccccccccccc"
       inkscape:transform-center-x="-1.9309245"
       inkscape:transform-center-y="-28.090115" /></g></svg>
