<?xml version="1.0" encoding="UTF-8" standalone="no"?>
<!-- Created with Inkscape (http://www.inkscape.org/) -->

<svg
   sodipodi:docname="person.svg"
   inkscape:version="1.2.1 (2ed6d7ae0b, 2022-08-22, custom)"
   id="svg10609"
   version="1.1"
   viewBox="0 0 100 100"
   height="100mm"
   width="100mm"
   xmlns:inkscape="http://www.inkscape.org/namespaces/inkscape"
   xmlns:sodipodi="http://sodipodi.sourceforge.net/DTD/sodipodi-0.dtd"
   xmlns="http://www.w3.org/2000/svg"
   xmlns:svg="http://www.w3.org/2000/svg">
  <sodipodi:namedview
     id="namedview10611"
     pagecolor="#ffffff"
     bordercolor="#000000"
     borderopacity="0.25"
     inkscape:showpageshadow="2"
     inkscape:pageopacity="0.0"
     inkscape:pagecheckerboard="0"
     inkscape:deskcolor="#d1d1d1"
     inkscape:document-units="mm"
     showgrid="false"
     inkscape:zoom="16.676773"
     inkscape:cx="152.90728"
     inkscape:cy="86.557514"
     inkscape:window-width="1846"
     inkscape:window-height="1016"
     inkscape:window-x="74"
     inkscape:window-y="27"
     inkscape:window-maximized="1"
     inkscape:current-layer="layer1" />
  <defs
     id="defs10606" />
  <g
     inkscape:label="Layer 1"
     inkscape:groupmode="layer"
     id="layer1">
    <path
       style="fill:#ffccaa;fill-opacity:1;stroke:none;stroke-width:1.03588;stroke-opacity:1"
       d="M 39.1876 58.0533 L 44.4013 57.4457 L 44.9996 42.6083 L 39.045 42.5731"
       id="leftArm2"
       sodipodi:nodetypes="cccc"
       inkscape:transform-center-x="-0.17517316"
       inkscape:transform-center-y="7.635025">
      <desc
         id="desc18761-5-2">{
    &quot;connectTo&quot;: &quot;leftArm1&quot;
}</desc>
    </path>
    <path
       style="fill:#ffccaa;fill-opacity:1;stroke:none;stroke-width:1.03588;stroke-opacity:1"
       d="M 39.461 67.0371 L 39.3525 70.4673 L 41.4412 71.9801 L 46.0389 70.8551 L 45.8546 67.9547 L 44.9045 65.8719 L 44.4082 57.4339 L 41.671 55.0639 L 39.1452 57.1316"
       id="leftArm3"
       sodipodi:nodetypes="ccccccccc"
       inkscape:transform-center-x="-1.510401"
       inkscape:transform-center-y="7.0148374">
      <desc
         id="desc18761-5-6-0">{
    &quot;connectTo&quot;: &quot;leftArm2&quot;
}</desc>
    </path>
    <path
       style="fill:#000080;fill-opacity:1;stroke:none;stroke-width:1.03588;stroke-opacity:1"
       d="M 39.4378 36.4647 L 37.9953 43.0743 L 46.7256 42.976 L 45.789 36.4009 L 44.0092 35.4131 L 41.4307 35.3853 L 39.4378 36.4647"
       id="leftArm1"
       sodipodi:nodetypes="ccccccc"
       inkscape:transform-center-x="-0.12042133"
       inkscape:transform-center-y="1.303412">
      <desc
         id="desc18761-3">{
    &quot;connectTo&quot;: &quot;body&quot;
}</desc>
    </path>
    <path
       style="fill:#550000;stroke-width:0.264583"
       d="M 26.078 66.0551 L 30.6847 71.8701 L 36.1566 71.9125 L 41.0654 66.4236 L 26.078 66.0551"
       id="pantsTop"
       sodipodi:nodetypes="ccccc"
       inkscape:transform-center-x="-0.43027696"
       inkscape:transform-center-y="7.7052848">
      <desc
         id="desc908-9-5">{
    &quot;connectTo&quot;: &quot;body&quot;
}</desc>
    </path>
    <path
       style="fill:#550000;stroke-width:0.264583"
       d="M 33.9703 78.1984 L 32.9716 83.1433 L 33.8582 93.6104 L 40.7425 93.1175 L 40.6038 82.5189 L 39.0851 77.6552 L 33.9703 78.1984"
       id="rightLeg2"
       sodipodi:nodetypes="ccccccc"
       inkscape:transform-center-x="-0.042614076"
       inkscape:transform-center-y="4.6442077">
      <desc
         id="desc908-0-0">{
    &quot;connectTo&quot;: &quot;rightLeg1&quot;
}</desc>
    </path>
    <path
       style="fill:#000000;stroke-width:0.264583"
       d="M 33.4662 93.0694 L 33.0124 99.933 L 49.1869 100.014 L 48.8249 97.0926 L 44.6825 96.4847 L 41.7415 93.1698 L 33.4662 93.0694"
       id="rightLeg3"
       sodipodi:nodetypes="ccccccc"
       inkscape:transform-center-x="-3.4307351"
       inkscape:transform-center-y="3.358924">
      <desc
         id="desc1220-3">{
    &quot;connectTo&quot;: &quot;rightLeg2&quot;
}</desc>
    </path>
    <path
       style="fill:#550000;stroke-width:0.264583"
       d="M 31.7487 65.351 L 32.9771 83.1377 L 40.6449 82.4832 L 41.211 64.6485 L 31.7487 65.351"
       id="rightLeg1"
       sodipodi:nodetypes="ccccc"
       inkscape:transform-center-x="-0.43027696"
       inkscape:transform-center-y="7.7052848">
      <desc
         id="desc908-9">{
    &quot;connectTo&quot;: &quot;body&quot;
}</desc>
    </path>
    <path
       style="fill:#550000;stroke-width:0.264583"
       d="M 26.2315 77.9568 L 24.8361 82.8047 L 24.8729 93.3092 L 31.7746 93.3749 L 32.4937 82.7997 L 31.3735 77.8291 L 26.2315 77.9568"
       id="leftLeg2"
       sodipodi:nodetypes="ccccccc"
       inkscape:transform-center-x="0.17568806"
       inkscape:transform-center-y="4.6341045">
      <desc
         id="desc908-0">{
    &quot;connectTo&quot;: &quot;leftLeg1&quot;
}</desc>
    </path>
    <path
       style="fill:#000000;stroke-width:0.264583"
       d="M 24.3007 93.0413 L 23.8469 99.9048 L 40.0214 99.9861 L 39.6594 97.0645 L 35.517 96.4565 L 32.576 93.1416 L 24.3007 93.0413"
       id="leftLeg3"
       sodipodi:nodetypes="ccccccc"
       inkscape:transform-center-x="-3.7710057"
       inkscape:transform-center-y="3.4891278">
      <desc
         id="desc1220">{
    &quot;connectTo&quot;: &quot;leftLeg2&quot;
}</desc>
    </path>
    <path
       style="fill:#550000;stroke-width:0.264583"
       d="M 28.9967 62.3837 L 25.6763 66.4058 L 24.8419 82.7995 L 32.5376 82.7675 L 34.0066 66.2148"
       id="leftLeg1"
       sodipodi:nodetypes="ccccc"
       inkscape:transform-center-x="0.14846029"
       inkscape:transform-center-y="5.5769306">
      <desc
         id="desc908">{
    &quot;connectTo&quot;: &quot;body&quot;
}</desc>
    </path>
    <path
       style="fill:#2b0000;stroke:none;stroke-width:1.03588;stroke-opacity:1"
       d="M 30.2553 68.2649 L 37.5255 67.8448 L 41.5284 66.1849 L 43.0219 38.3349 L 39.9904 32.8636 L 26.8553 33.1181 L 23.6861 44.9705 L 24.9655 66.3975"
       id="body"
       sodipodi:nodetypes="cccccccc"
       inkscape:transform-center-x="0.79391521"
       inkscape:transform-center-y="-49.981786" />
    <path
       style="fill:#ffccaa;fill-opacity:1;stroke:none;stroke-width:1.03588;stroke-opacity:1"
       d="m 21.985353,55.873474 1.007387,2.679119 3.548996,0.587823 0.651998,-3.437505 L 28.0638,42.648 l -6.07,-0.2495"
       id="rightArm2"
       sodipodi:nodetypes="cccccc"
       inkscape:transform-center-x="-0.38024573"
       inkscape:transform-center-y="7.4654316">
      <desc
         id="desc18761-5">{
    &quot;connectTo&quot;: &quot;rightArm1&quot;
}</desc>
    </path>
    <path
       style="fill:#ffccaa;fill-opacity:1;stroke:none;stroke-width:1.03588;stroke-opacity:1"
       d="m 21.510334,66.229375 -0.367065,3.412174 1.968458,1.666214 4.669582,-0.774754 1.706469,-3.725816 -2.602502,-0.594284 0.282941,-9.185925 -1.081328,-3.437259 -2.436953,-0.196981 -1.706849,2.935564"
       id="rightArm3"
       sodipodi:nodetypes="cccccccccc"
       inkscape:transform-center-x="0.2301641"
       inkscape:transform-center-y="6.7471431">
      <desc
         id="desc18761-5-6">{
    &quot;connectTo&quot;: &quot;rightArm2&quot;
}</desc>
    </path>
    <path
       style="fill:#ffccaa;fill-opacity:1;stroke:none;stroke-width:1.03588;stroke-opacity:1"
       d="M 41.8556 12.463 L 34.1579 10.6826 L 25.6527 11.6687 L 25.7311 23.6177 L 28.1207 29.3971 L 30.305 33.1499 L 36.3494 33.1805 L 38.9377 29.636 L 42.943 29.6905 L 44.0385 24.2637 L 43.9164 17.5435"
       id="face"
       sodipodi:nodetypes="ccccccccccc">
      <desc
         id="desc230">{
    &quot;connectTo&quot;: &quot;body&quot;
}</desc>
    </path>
    <path
       style="fill:#000080;fill-opacity:1;stroke:none;stroke-width:1.03588;stroke-opacity:1"
       d="M 22.7328 36.3031 L 21.0471 42.8549 L 29.7751 43.0792 L 29.082 36.4739 L 27.3398 35.4211 L 24.7641 35.298 L 22.7328 36.3031"
       id="rightArm1"
       sodipodi:nodetypes="ccccccc"
       inkscape:transform-center-x="0.1083783"
       inkscape:transform-center-y="1.1257606">
      <desc
         id="desc18761">{
    &quot;connectTo&quot;: &quot;body&quot;
}</desc>
    </path>
    <path
       style="fill:#550000;stroke-width:0.29905"
       d="M 33.2264 8.51151 L 24.0821 11.8174 L 20.9556 20.7088 L 23.9594 26.7521 L 28.99 28.4401 L 27.0992 20.8549 L 29.1583 18.9881 L 30.9037 23.2806 L 32.9257 23.5617 L 34.2725 15.4587 L 43.4311 13.4593 L 46.5363 7.15628 L 40.0088 8.43795 L 33.2264 8.51151"
       id="hair"
       sodipodi:nodetypes="cccccccccccccc">
      <desc
         id="desc793">{
    &quot;connectTo&quot;: &quot;face&quot;
}</desc>
    </path>
    <path
       style="fill:#2b0000;stroke-width:0.210546"
       d="m 38.276015,18.351391 -1.05552,1.078694 1.107938,1.017024 0.860072,-1.075619"
       id="rightEye"
       sodipodi:nodetypes="cccc">
      <desc
         id="desc280">{
    &quot;connectTo&quot;: &quot;face&quot;
}</desc>
    </path>
    <path
       style="fill:#2b0000;stroke-width:0.210546"
       d="m 41.975798,17.421202 -1.005085,1.222288 1.054998,1.152408 0.818976,-1.218803"
       id="leftEye"
       sodipodi:nodetypes="cccc">
      <desc
         id="desc280-7">{
    &quot;connectTo&quot;: &quot;face&quot;
}</desc>
    </path>
    <path
       style="fill:#d35f5f;stroke-width:0.264583"
       d="m 41.9755,24.805831 -3.696618,1.18003 0.08568,0.882322 3.01756,-0.751568 z"
       id="mouth">
      <desc
         id="desc28369">{
    &quot;connectTo&quot;: &quot;face&quot;
}</desc>
    </path>
    <path
       style="fill:#ffebde;fill-opacity:1;stroke-width:0.152088"
       d="m 40.889012,21.420719 -0.58046,2.113192 1.599148,-0.253008 z"
       id="nose"
       sodipodi:nodetypes="cccc">
      <desc
         id="desc6278">{
    &quot;connectTo&quot;: &quot;body&quot;
}</desc>
    </path>
  </g>
</svg>
